<svg width="25" height="20" viewBox="0 0 25 20" fill="none" xmlns="http://www.w3.org/2000/svg">
<path d="M12.5 0L0 10.5882H3.75V20H21.25V10.5882H25L12.5 0ZM12.5 6.76471C13.2459 6.76471 13.9613 7.04359 14.4887 7.54001C15.0162 8.03643 15.3125 8.70972 15.3125 9.41177C15.3125 10.1138 15.0162 10.7871 14.4887 11.2835C13.9613 11.7799 13.2459 12.0588 12.5 12.0588C11.7541 12.0588 11.0387 11.7799 10.5113 11.2835C9.98382 10.7871 9.6875 10.1138 9.6875 9.41177C9.6875 8.70972 9.98382 8.03643 10.5113 7.54001C11.0387 7.04359 11.7541 6.76471 12.5 6.76471ZM12.5 14.1176C14.375 14.1176 18.125 15 18.125 16.7647V17.6471H6.875V16.7647C6.875 15 10.625 14.1176 12.5 14.1176Z" fill="white"/>
</svg>
