<svg width="18" height="20" viewBox="0 0 18 20" fill="none" xmlns="http://www.w3.org/2000/svg">
<path d="M16.2 8.88889H1.8V5.55556H16.2M16.2 13.3333H9.9V11.1111H16.2M16.2 17.7778H9.9V15.5556H16.2M8.1 17.7778H1.8V11.1111H8.1M16.497 1.85556L15.003 0L13.5 1.85556L11.997 0L10.503 1.85556L9 0L7.497 1.85556L6.003 0L4.5 1.85556L2.997 0L1.503 1.85556L0 0V17.7778C0 18.3671 0.189642 18.9324 0.527208 19.3491C0.864773 19.7659 1.32261 20 1.8 20H16.2C16.6774 20 17.1352 19.7659 17.4728 19.3491C17.8104 18.9324 18 18.3671 18 17.7778V0L16.497 1.85556Z" fill="#3CC8C8"/>
</svg>
