<svg width="19" height="22" viewBox="0 0 19 22" fill="none" xmlns="http://www.w3.org/2000/svg">
<path d="M18.875 17.7917V18.8333H0.125V17.7917L2.20833 15.7083V9.45834C2.20833 6.22918 4.32292 3.38543 7.41667 2.46876C7.41667 2.36459 7.41667 2.27084 7.41667 2.16668C7.41667 1.61414 7.63616 1.08424 8.02686 0.693538C8.41756 0.302837 8.94747 0.0833435 9.5 0.0833435C10.0525 0.0833435 10.5824 0.302837 10.9731 0.693538C11.3638 1.08424 11.5833 1.61414 11.5833 2.16668C11.5833 2.27084 11.5833 2.36459 11.5833 2.46876C14.6771 3.38543 16.7917 6.22918 16.7917 9.45834V15.7083L18.875 17.7917ZM11.5833 19.875C11.5833 20.4275 11.3638 20.9574 10.9731 21.3481C10.5824 21.7388 10.0525 21.9583 9.5 21.9583C8.94747 21.9583 8.41756 21.7388 8.02686 21.3481C7.63616 20.9574 7.41667 20.4275 7.41667 19.875" fill="white"/>
</svg>
