<svg width="21" height="21" viewBox="0 0 21 21" fill="none" xmlns="http://www.w3.org/2000/svg">
<path d="M7.55125 0.0265808C9.52143 0.0265808 11.4109 0.809231 12.804 2.20236C14.1972 3.59549 14.9798 5.48497 14.9798 7.45515C14.9798 9.29515 14.3055 10.9866 13.197 12.2894L13.5055 12.598H14.4084L20.1227 18.3123L18.4084 20.0266L12.6941 14.3123V13.4094L12.3855 13.1009C11.0827 14.2094 9.39125 14.8837 7.55125 14.8837C5.58107 14.8837 3.69159 14.1011 2.29846 12.7079C0.905331 11.3148 0.122681 9.42533 0.122681 7.45515C0.122681 5.48497 0.905331 3.59549 2.29846 2.20236C3.69159 0.809231 5.58107 0.0265808 7.55125 0.0265808ZM7.55125 2.3123C4.69411 2.3123 2.4084 4.59801 2.4084 7.45515C2.4084 10.3123 4.69411 12.598 7.55125 12.598C10.4084 12.598 12.6941 10.3123 12.6941 7.45515C12.6941 4.59801 10.4084 2.3123 7.55125 2.3123Z" fill="#A3A3A3"/>
</svg>
