<svg width="25" height="20" viewBox="0 0 25 20" fill="none" xmlns="http://www.w3.org/2000/svg">
<path d="M22.2875 5.78947L19.45 3.4C19.5375 2.95789 19.675 2.54737 19.85 2.18947C19.95 2 20 1.8 20 1.57895C20 0.705263 19.1625 0 18.125 0C16.075 0 14.2625 0.831579 13.125 2.10526H6.875C3.075 2.10526 0 4.69474 0 7.89474C0 11.0947 3.125 20 3.125 20H10V17.8947H12.5V20H19.375L21.475 14.1158L25 13.1263V5.78947H22.2875ZM13.75 7.36842H7.5V5.26316H13.75V7.36842ZM17.5 9.47368C16.8125 9.47368 16.25 9 16.25 8.42105C16.25 7.84211 16.8125 7.36842 17.5 7.36842C18.1875 7.36842 18.75 7.84211 18.75 8.42105C18.75 9 18.1875 9.47368 17.5 9.47368Z" fill="white"/>
</svg>
