<svg width="25" height="25" viewBox="0 0 25 25" fill="none" xmlns="http://www.w3.org/2000/svg">
<path d="M3.125 0C1.39062 0 0 1.1125 0 2.5V22.5C0 23.163 0.32924 23.7989 0.915291 24.2678C1.50134 24.7366 2.2962 25 3.125 25H21.875C22.7038 25 23.4987 24.7366 24.0847 24.2678C24.6708 23.7989 25 23.163 25 22.5V7.5L15.625 0H3.125ZM14.0625 1.875L22.6562 8.75H14.0625V1.875ZM12.5 11.25C13.7432 11.25 14.9355 11.6451 15.8146 12.3483C16.6936 13.0516 17.1875 14.0054 17.1875 15C17.1875 17.35 13.6719 17.575 13.6719 19.6875H11.3281C11.3281 16.6375 14.8438 16.875 14.8438 15C14.8438 14.5027 14.5968 14.0258 14.1573 13.6742C13.7177 13.3225 13.1216 13.125 12.5 13.125C11.8784 13.125 11.2823 13.3225 10.8427 13.6742C10.4032 14.0258 10.1562 14.5027 10.1562 15H7.8125C7.8125 14.0054 8.30636 13.0516 9.18544 12.3483C10.0645 11.6451 11.2568 11.25 12.5 11.25ZM11.3281 20.625H13.6719V22.5H11.3281V20.625Z" fill="white"/>
</svg>
