<svg width="68" height="68" viewBox="0 0 68 68" fill="none" xmlns="http://www.w3.org/2000/svg">
<g filter="url(#filter0_d_15_83)">
<circle cx="34" cy="33" r="30" fill="#121415"/>
<circle cx="34" cy="33" r="29" stroke="#242424" stroke-width="2"/>
</g>
<path d="M17.3333 23L25.6666 29.6666V24.6666H42.3333C43.4384 24.6666 44.4982 25.0178 45.2796 25.643C46.061 26.2681 46.5 27.1159 46.5 28C46.5 28.884 46.061 29.7319 45.2796 30.357C44.4982 30.9821 43.4384 31.3333 42.3333 31.3333H25.6666C23.4565 31.3333 21.3369 32.0357 19.7741 33.2859C18.2113 34.5362 17.3333 36.2319 17.3333 38C17.3333 39.7681 18.2113 41.4638 19.7741 42.714C21.3369 43.9643 23.4565 44.6666 25.6666 44.6666H42.3333V49.6666L50.6666 43L42.3333 36.3333V41.3333H25.6666C24.5616 41.3333 23.5018 40.9821 22.7204 40.357C21.939 39.7319 21.5 38.884 21.5 38C21.5 37.1159 21.939 36.2681 22.7204 35.643C23.5018 35.0178 24.5616 34.6666 25.6666 34.6666H42.3333C44.5434 34.6666 46.6631 33.9643 48.2259 32.714C49.7887 31.4638 50.6666 29.7681 50.6666 28C50.6666 26.2319 49.7887 24.5362 48.2259 23.2859C46.6631 22.0357 44.5434 21.3333 42.3333 21.3333H25.6666V16.3333L17.3333 23Z" fill="#FBD643"/>
<defs>
<filter id="filter0_d_15_83" x="0" y="0" width="68" height="68" filterUnits="userSpaceOnUse" color-interpolation-filters="sRGB">
<feFlood flood-opacity="0" result="BackgroundImageFix"/>
<feColorMatrix in="SourceAlpha" type="matrix" values="0 0 0 0 0 0 0 0 0 0 0 0 0 0 0 0 0 0 127 0" result="hardAlpha"/>
<feOffset dy="1"/>
<feGaussianBlur stdDeviation="2"/>
<feComposite in2="hardAlpha" operator="out"/>
<feColorMatrix type="matrix" values="0 0 0 0 0.984314 0 0 0 0 0.84 0 0 0 0 0.262745 0 0 0 1 0"/>
<feBlend mode="normal" in2="BackgroundImageFix" result="effect1_dropShadow_15_83"/>
<feBlend mode="normal" in="SourceGraphic" in2="effect1_dropShadow_15_83" result="shape"/>
</filter>
</defs>
</svg>
