<svg width="60" height="60" viewBox="0 0 60 60" fill="none" xmlns="http://www.w3.org/2000/svg">
<circle cx="30" cy="30" r="29" fill="#121415" stroke="#242424" stroke-width="2"/>
<path d="M13.3333 20L21.6666 26.6666V21.6666H38.3333C39.4384 21.6666 40.4982 22.0178 41.2796 22.643C42.061 23.2681 42.5 24.1159 42.5 25C42.5 25.884 42.061 26.7319 41.2796 27.357C40.4982 27.9821 39.4384 28.3333 38.3333 28.3333H21.6666C19.4565 28.3333 17.3369 29.0357 15.7741 30.2859C14.2113 31.5362 13.3333 33.2319 13.3333 35C13.3333 36.7681 14.2113 38.4638 15.7741 39.714C17.3369 40.9643 19.4565 41.6666 21.6666 41.6666H38.3333V46.6666L46.6666 40L38.3333 33.3333V38.3333H21.6666C20.5616 38.3333 19.5018 37.9821 18.7204 37.357C17.939 36.7319 17.5 35.884 17.5 35C17.5 34.1159 17.939 33.2681 18.7204 32.643C19.5018 32.0178 20.5616 31.6666 21.6666 31.6666H38.3333C40.5434 31.6666 42.6631 30.9643 44.2259 29.714C45.7887 28.4638 46.6666 26.7681 46.6666 25C46.6666 23.2319 45.7887 21.5362 44.2259 20.2859C42.6631 19.0357 40.5434 18.3333 38.3333 18.3333H21.6666V13.3333L13.3333 20Z" fill="#FBD643"/>
</svg>
