<svg width="18" height="20" viewBox="0 0 18 20" fill="none" xmlns="http://www.w3.org/2000/svg">
<path d="M16.2899 9.11137C15.9943 8.77803 15.6343 8.48913 15.3001 8.20023C14.4388 7.53355 13.4619 7.05576 12.6392 6.35574C10.7238 4.73347 10.2996 2.05561 11.5208 0C10.2996 0.255563 9.23264 0.833357 8.31995 1.46671C4.99056 3.77789 3.67937 7.85578 5.24765 11.3559C5.29907 11.467 5.35049 11.5781 5.35049 11.7226C5.35049 11.967 5.15767 12.1892 4.90058 12.2781C4.60492 12.3892 4.2964 12.3226 4.05216 12.1448C3.97503 12.0892 3.92361 12.0337 3.87219 11.9559C2.4196 10.367 2.18821 8.08912 3.16518 6.26685C1.01843 7.778 -0.151356 10.3336 0.0157558 12.7448C0.0928845 13.3004 0.170013 13.856 0.388545 14.4115C0.568512 15.0782 0.915591 15.7449 1.30123 16.3338C2.68955 18.2561 5.0934 19.6339 7.67721 19.9117C10.4281 20.2117 13.3719 19.7783 15.4801 18.1339C17.8325 16.2894 18.6552 13.3337 17.4468 10.8003L17.2797 10.5114C17.0098 10.0003 16.2899 9.11137 16.2899 9.11137ZM12.2278 16.1116C11.8679 16.3782 11.2766 16.6671 10.8138 16.7783C9.37404 17.2227 7.93431 16.6005 7.08589 15.8671C8.61561 15.556 9.5283 14.5782 9.79825 13.5893C10.0168 12.7004 9.60543 11.967 9.43832 11.1114C9.28406 10.2892 9.30977 9.58916 9.65685 8.82247C9.90109 9.24471 10.1582 9.66694 10.4667 10.0003C11.4565 11.1114 13.0119 11.6003 13.3462 13.1115C13.3976 13.267 13.4233 13.4226 13.4233 13.5893C13.4619 14.5004 12.9991 15.5004 12.2278 16.1116Z" fill="#FBD643"/>
</svg>
