<svg width="25" height="20" viewBox="0 0 25 20" fill="none" xmlns="http://www.w3.org/2000/svg">
<path d="M23.6842 16.6667V17.7778C23.6842 18.3671 23.407 18.9324 22.9134 19.3491C22.4199 19.7659 21.7506 20 21.0526 20H2.63158C1.17105 20 0 19 0 17.7778V2.22222C0 1.63285 0.277255 1.06762 0.770772 0.650874C1.26429 0.234126 1.93364 0 2.63158 0H21.0526C21.7506 0 22.4199 0.234126 22.9134 0.650874C23.407 1.06762 23.6842 1.63285 23.6842 2.22222V3.33333H11.8421C10.3816 3.33333 9.21053 4.33333 9.21053 5.55556V14.4444C9.21053 15.0338 9.48778 15.599 9.9813 16.0158C10.4748 16.4325 11.1442 16.6667 11.8421 16.6667M11.8421 14.4444H25V5.55556H11.8421M17.1053 11.6667C16.5818 11.6667 16.0798 11.4911 15.7097 11.1785C15.3395 10.866 15.1316 10.442 15.1316 10C15.1316 9.55797 15.3395 9.13405 15.7097 8.82149C16.0798 8.50893 16.5818 8.33333 17.1053 8.33333C17.6287 8.33333 18.1307 8.50893 18.5009 8.82149C18.871 9.13405 19.0789 9.55797 19.0789 10C19.0789 10.442 18.871 10.866 18.5009 11.1785C18.1307 11.4911 17.6287 11.6667 17.1053 11.6667Z" fill="white"/>
</svg>
